<svg id="visual" viewBox="0 0 1920 1080" width="1920" height="1080" xmlns="http://www.w3.org/2000/svg" xmlns:xlink="http://www.w3.org/1999/xlink" version="1.1"><rect x="0" y="0" width="1920" height="1080" fill="#ffffff"></rect><path d="M0 370L29.2 381.5C58.3 393 116.7 416 174.8 422.8C233 429.7 291 420.3 349.2 411.8C407.3 403.3 465.7 395.7 523.8 391.5C582 387.3 640 386.7 698.2 380.7C756.3 374.7 814.7 363.3 872.8 366.8C931 370.3 989 388.7 1047.2 400.7C1105.3 412.7 1163.7 418.3 1221.8 410.3C1280 402.3 1338 380.7 1396.2 366.2C1454.3 351.7 1512.7 344.3 1570.8 345.7C1629 347 1687 357 1745.2 370C1803.3 383 1861.7 399 1890.8 407L1920 415L1920 0L1890.8 0C1861.7 0 1803.3 0 1745.2 0C1687 0 1629 0 1570.8 0C1512.7 0 1454.3 0 1396.2 0C1338 0 1280 0 1221.8 0C1163.7 0 1105.3 0 1047.2 0C989 0 931 0 872.8 0C814.7 0 756.3 0 698.2 0C640 0 582 0 523.8 0C465.7 0 407.3 0 349.2 0C291 0 233 0 174.8 0C116.7 0 58.3 0 29.2 0L0 0Z" fill="#009473"></path><path d="M0 304L29.2 315.5C58.3 327 116.7 350 174.8 346.2C233 342.3 291 311.7 349.2 305C407.3 298.3 465.7 315.7 523.8 326C582 336.3 640 339.7 698.2 338C756.3 336.3 814.7 329.7 872.8 319.8C931 310 989 297 1047.2 299.3C1105.3 301.7 1163.7 319.3 1221.8 321.8C1280 324.3 1338 311.7 1396.2 308.8C1454.3 306 1512.7 313 1570.8 319.8C1629 326.7 1687 333.3 1745.2 332.2C1803.3 331 1861.7 322 1890.8 317.5L1920 313L1920 0L1890.8 0C1861.7 0 1803.3 0 1745.2 0C1687 0 1629 0 1570.8 0C1512.7 0 1454.3 0 1396.2 0C1338 0 1280 0 1221.8 0C1163.7 0 1105.3 0 1047.2 0C989 0 931 0 872.8 0C814.7 0 756.3 0 698.2 0C640 0 582 0 523.8 0C465.7 0 407.3 0 349.2 0C291 0 233 0 174.8 0C116.7 0 58.3 0 29.2 0L0 0Z" fill="#007975"></path><path d="M0 243L29.2 250C58.3 257 116.7 271 174.8 267.2C233 263.3 291 241.7 349.2 243.8C407.3 246 465.7 272 523.8 284.3C582 296.7 640 295.3 698.2 289.2C756.3 283 814.7 272 872.8 274.3C931 276.7 989 292.3 1047.2 284.2C1105.3 276 1163.7 244 1221.8 234.5C1280 225 1338 238 1396.2 246.3C1454.3 254.7 1512.7 258.3 1570.8 262.2C1629 266 1687 270 1745.2 272.2C1803.3 274.3 1861.7 274.7 1890.8 274.8L1920 275L1920 0L1890.8 0C1861.7 0 1803.3 0 1745.2 0C1687 0 1629 0 1570.8 0C1512.7 0 1454.3 0 1396.2 0C1338 0 1280 0 1221.8 0C1163.7 0 1105.3 0 1047.2 0C989 0 931 0 872.8 0C814.7 0 756.3 0 698.2 0C640 0 582 0 523.8 0C465.7 0 407.3 0 349.2 0C291 0 233 0 174.8 0C116.7 0 58.3 0 29.2 0L0 0Z" fill="#005e6a"></path><path d="M0 173L29.2 171.7C58.3 170.3 116.7 167.7 174.8 170.8C233 174 291 183 349.2 187.2C407.3 191.3 465.7 190.7 523.8 184.7C582 178.7 640 167.3 698.2 168.8C756.3 170.3 814.7 184.7 872.8 186.5C931 188.3 989 177.7 1047.2 171.8C1105.3 166 1163.7 165 1221.8 165C1280 165 1338 166 1396.2 171.8C1454.3 177.7 1512.7 188.3 1570.8 189.5C1629 190.7 1687 182.3 1745.2 177.8C1803.3 173.3 1861.7 172.7 1890.8 172.3L1920 172L1920 0L1890.8 0C1861.7 0 1803.3 0 1745.2 0C1687 0 1629 0 1570.8 0C1512.7 0 1454.3 0 1396.2 0C1338 0 1280 0 1221.8 0C1163.7 0 1105.3 0 1047.2 0C989 0 931 0 872.8 0C814.7 0 756.3 0 698.2 0C640 0 582 0 523.8 0C465.7 0 407.3 0 349.2 0C291 0 233 0 174.8 0C116.7 0 58.3 0 29.2 0L0 0Z" fill="#004355"></path><path d="M0 111L29.2 111.3C58.3 111.7 116.7 112.3 174.8 117.8C233 123.3 291 133.7 349.2 132.2C407.3 130.7 465.7 117.3 523.8 112.7C582 108 640 112 698.2 112C756.3 112 814.7 108 872.8 108C931 108 989 112 1047.2 118.8C1105.3 125.7 1163.7 135.3 1221.8 133.7C1280 132 1338 119 1396.2 123C1454.3 127 1512.7 148 1570.8 147.2C1629 146.3 1687 123.7 1745.2 124.5C1803.3 125.3 1861.7 149.7 1890.8 161.8L1920 174L1920 0L1890.8 0C1861.7 0 1803.3 0 1745.2 0C1687 0 1629 0 1570.8 0C1512.7 0 1454.3 0 1396.2 0C1338 0 1280 0 1221.8 0C1163.7 0 1105.3 0 1047.2 0C989 0 931 0 872.8 0C814.7 0 756.3 0 698.2 0C640 0 582 0 523.8 0C465.7 0 407.3 0 349.2 0C291 0 233 0 174.8 0C116.7 0 58.3 0 29.2 0L0 0Z" fill="#03293c"></path><path d="M0 69L29.2 67.3C58.3 65.7 116.7 62.3 174.8 68C233 73.7 291 88.3 349.2 92.7C407.3 97 465.7 91 523.8 89.7C582 88.3 640 91.7 698.2 86.2C756.3 80.7 814.7 66.3 872.8 64.3C931 62.3 989 72.7 1047.2 76.8C1105.3 81 1163.7 79 1221.8 81.2C1280 83.3 1338 89.7 1396.2 85.3C1454.3 81 1512.7 66 1570.8 63C1629 60 1687 69 1745.2 75.3C1803.3 81.7 1861.7 85.3 1890.8 87.2L1920 89L1920 0L1890.8 0C1861.7 0 1803.3 0 1745.2 0C1687 0 1629 0 1570.8 0C1512.7 0 1454.3 0 1396.2 0C1338 0 1280 0 1221.8 0C1163.7 0 1105.3 0 1047.2 0C989 0 931 0 872.8 0C814.7 0 756.3 0 698.2 0C640 0 582 0 523.8 0C465.7 0 407.3 0 349.2 0C291 0 233 0 174.8 0C116.7 0 58.3 0 29.2 0L0 0Z" fill="#001122"></path></svg>