<svg id="visual" viewBox="0 0 1920 1080" width="1920" height="1080" xmlns="http://www.w3.org/2000/svg" xmlns:xlink="http://www.w3.org/1999/xlink" version="1.1"><rect x="0" y="0" width="1920" height="1080" fill="#001220"></rect><path d="M0 371L45.7 378.3C91.3 385.7 182.7 400.3 274.2 404.7C365.7 409 457.3 403 548.8 390.2C640.3 377.3 731.7 357.7 823 337.3C914.3 317 1005.7 296 1097 294.8C1188.3 293.7 1279.7 312.3 1371.2 334.8C1462.7 357.3 1554.3 383.7 1645.8 392.5C1737.3 401.3 1828.7 392.7 1874.3 388.3L1920 384L1920 0L1874.3 0C1828.7 0 1737.3 0 1645.8 0C1554.3 0 1462.7 0 1371.2 0C1279.7 0 1188.3 0 1097 0C1005.7 0 914.3 0 823 0C731.7 0 640.3 0 548.8 0C457.3 0 365.7 0 274.2 0C182.7 0 91.3 0 45.7 0L0 0Z" fill="#009473"></path><path d="M0 353L45.7 338.5C91.3 324 182.7 295 274.2 286.8C365.7 278.7 457.3 291.3 548.8 298.3C640.3 305.3 731.7 306.7 823 306.8C914.3 307 1005.7 306 1097 293.2C1188.3 280.3 1279.7 255.7 1371.2 250.3C1462.7 245 1554.3 259 1645.8 260.3C1737.3 261.7 1828.7 250.3 1874.3 244.7L1920 239L1920 0L1874.3 0C1828.7 0 1737.3 0 1645.8 0C1554.3 0 1462.7 0 1371.2 0C1279.7 0 1188.3 0 1097 0C1005.7 0 914.3 0 823 0C731.7 0 640.3 0 548.8 0C457.3 0 365.7 0 274.2 0C182.7 0 91.3 0 45.7 0L0 0Z" fill="#5eaf94"></path><path d="M0 221L45.7 220C91.3 219 182.7 217 274.2 224.8C365.7 232.7 457.3 250.3 548.8 260.3C640.3 270.3 731.7 272.7 823 267.5C914.3 262.3 1005.7 249.7 1097 248.7C1188.3 247.7 1279.7 258.3 1371.2 261.7C1462.7 265 1554.3 261 1645.8 252.8C1737.3 244.7 1828.7 232.3 1874.3 226.2L1920 220L1920 0L1874.3 0C1828.7 0 1737.3 0 1645.8 0C1554.3 0 1462.7 0 1371.2 0C1279.7 0 1188.3 0 1097 0C1005.7 0 914.3 0 823 0C731.7 0 640.3 0 548.8 0C457.3 0 365.7 0 274.2 0C182.7 0 91.3 0 45.7 0L0 0Z" fill="#96cab7"></path><path d="M0 169L45.7 162.2C91.3 155.3 182.7 141.7 274.2 133.3C365.7 125 457.3 122 548.8 135.3C640.3 148.7 731.7 178.3 823 176.5C914.3 174.7 1005.7 141.3 1097 138.5C1188.3 135.7 1279.7 163.3 1371.2 165.5C1462.7 167.7 1554.3 144.3 1645.8 138C1737.3 131.7 1828.7 142.3 1874.3 147.7L1920 153L1920 0L1874.3 0C1828.7 0 1737.3 0 1645.8 0C1554.3 0 1462.7 0 1371.2 0C1279.7 0 1188.3 0 1097 0C1005.7 0 914.3 0 823 0C731.7 0 640.3 0 548.8 0C457.3 0 365.7 0 274.2 0C182.7 0 91.3 0 45.7 0L0 0Z" fill="#cbe5da"></path><path d="M0 51L45.7 56C91.3 61 182.7 71 274.2 74.7C365.7 78.3 457.3 75.7 548.8 72.8C640.3 70 731.7 67 823 76.5C914.3 86 1005.7 108 1097 114.8C1188.3 121.7 1279.7 113.3 1371.2 103.5C1462.7 93.7 1554.3 82.3 1645.8 77.7C1737.3 73 1828.7 75 1874.3 76L1920 77L1920 0L1874.3 0C1828.7 0 1737.3 0 1645.8 0C1554.3 0 1462.7 0 1371.2 0C1279.7 0 1188.3 0 1097 0C1005.7 0 914.3 0 823 0C731.7 0 640.3 0 548.8 0C457.3 0 365.7 0 274.2 0C182.7 0 91.3 0 45.7 0L0 0Z" fill="#ffffff"></path></svg>